<?xml version="1.0" encoding="UTF-8"?>
<svg xmlns="http://www.w3.org/2000/svg" xmlns:xlink="http://www.w3.org/1999/xlink" width="40pt" height="40pt" viewBox="0 0 40 40" version="1.1">
<g id="surface132231">
<path style=" stroke:none;fill-rule:nonzero;fill:rgb(100%,100%,100%);fill-opacity:1;" d="M 3.75 3.75 L 36.25 3.75 L 36.25 36.25 L 3.75 36.25 Z M 3.75 3.75 "/>
<path style=" stroke:none;fill-rule:nonzero;fill:rgb(100%,100%,100%);fill-opacity:1;" d="M 35 5 L 35 35 L 5 35 L 5 5 L 35 5 M 37.5 2.5 L 2.5 2.5 L 2.5 37.5 L 37.5 37.5 Z M 37.5 2.5 "/>
<path style=" stroke:none;fill-rule:nonzero;fill:rgb(60%,60%,60%);fill-opacity:1;" d="M 27.5 35 L 27.5 22.5 L 31.761719 22.5 L 32.390625 17.523438 L 27.496094 17.523438 L 27.496094 14.480469 C 27.496094 13.070312 27.960938 12.109375 29.980469 12.109375 L 32.476562 12.109375 L 32.476562 7.753906 C 32.03125 7.691406 30.578125 7.558594 28.800781 7.558594 C 25.082031 7.558594 22.515625 9.828125 22.515625 13.996094 L 22.5 17.5 L 17.5 17.5 L 17.5 22.5 L 22.5 22.5 L 22.5 35 Z M 27.5 35 "/>
</g>
</svg>
