<?xml version="1.0" encoding="UTF-8"?>
<svg xmlns="http://www.w3.org/2000/svg" xmlns:xlink="http://www.w3.org/1999/xlink" width="100pt" height="100pt" viewBox="0 0 100 100" version="1.1">
<g id="surface128440">
<path style=" stroke:none;fill-rule:nonzero;fill:rgb(60%,60%,60%);fill-opacity:1;" d="M 34.375 21.875 C 18.84375 21.875 6.25 34.46875 6.25 50 C 6.25 65.53125 18.84375 78.125 34.375 78.125 C 49.90625 78.125 62.5 65.53125 62.5 50 C 62.5 48.070312 62.289062 46.1875 61.921875 44.375 L 61.765625 43.75 L 34.375 43.75 L 34.375 53.125 L 53.125 53.125 C 51.632812 61.992188 43.664062 68.75 34.375 68.75 C 24.015625 68.75 15.625 60.359375 15.625 50 C 15.625 39.640625 24.015625 31.25 34.375 31.25 C 39.0625 31.25 43.335938 32.984375 46.625 35.828125 L 53.34375 29.25 C 48.34375 24.671875 41.6875 21.875 34.375 21.875 Z M 78.125 34.375 L 78.125 43.75 L 68.75 43.75 L 68.75 50 L 78.125 50 L 78.125 59.375 L 84.375 59.375 L 84.375 50 L 93.75 50 L 93.75 43.75 L 84.375 43.75 L 84.375 34.375 Z M 78.125 34.375 "/>
</g>
</svg>
