<?xml version="1.0" encoding="UTF-8"?>
<svg xmlns="http://www.w3.org/2000/svg" xmlns:xlink="http://www.w3.org/1999/xlink" width="48pt" height="48pt" viewBox="0 0 48 48" version="1.1">
<defs>
<filter id="alpha" filterUnits="objectBoundingBox" x="0%" y="0%" width="100%" height="100%">
  <feColorMatrix type="matrix" in="SourceGraphic" values="0 0 0 0 1 0 0 0 0 1 0 0 0 0 1 0 0 0 1 0"/>
</filter>
<mask id="mask0">
  <g filter="url(#alpha)">
<rect x="0" y="0" width="48" height="48" style="fill:rgb(0%,0%,0%);fill-opacity:0.301961;stroke:none;"/>
  </g>
</mask>
<clipPath id="clip1">
  <rect width="48" height="48"/>
</clipPath>
<g id="surface114188" clip-path="url(#clip1)">
<path style=" stroke:none;fill-rule:nonzero;fill:rgb(100%,100%,100%);fill-opacity:1;" d="M 6 22 L 42 8 L 36 40 L 26 34 L 19.75 37 L 16 28 Z M 6 22 "/>
</g>
</defs>
<g id="surface114183">
<use xlink:href="#surface114188" mask="url(#mask0)"/>
<path style=" stroke:none;fill-rule:nonzero;fill:rgb(100%,100%,100%);fill-opacity:1;" d="M 42.898438 6.753906 C 41.929688 5.925781 40.480469 5.769531 39.03125 6.34375 C 38.128906 6.699219 24.027344 12.632812 10.882812 18.164062 L 6.539062 19.992188 C 4.859375 20.675781 4.007812 21.78125 4.007812 23.277344 C 4.007812 24.320312 4.449219 25.742188 6.5625 26.578125 L 13.894531 29.515625 C 14.53125 31.414062 16.003906 35.832031 16.371094 37.007812 C 16.59375 37.703125 17.148438 39.457031 18.550781 39.867188 C 18.839844 39.964844 19.140625 40.015625 19.445312 40.015625 C 20.332031 40.015625 20.96875 39.601562 21.28125 39.363281 L 25.941406 35.421875 L 31.601562 40.65625 C 31.820312 40.878906 32.972656 42 34.523438 42 C 36.457031 42 37.925781 40.390625 38.230469 38.832031 C 38.394531 37.976562 43.855469 10.574219 43.855469 10.578125 C 44.34375 8.378906 43.464844 7.238281 42.898438 6.753906 Z M 34.332031 37.730469 L 26.058594 30.078125 L 19.996094 35.210938 C 19.28125 32.996094 17.394531 27.367188 17.394531 27.367188 L 17.105469 26.488281 L 9.0625 23.273438 L 12.4375 21.855469 C 21.035156 18.234375 36.347656 11.789062 39.820312 10.34375 C 39.066406 14.125 34.957031 34.757812 34.332031 37.730469 Z M 34.332031 37.730469 "/>
<path style=" stroke:none;fill-rule:nonzero;fill:rgb(100%,100%,100%);fill-opacity:1;" d="M 33.601562 16 C 33.351562 16 33.011719 16.238281 32.832031 16.351562 C 30.257812 17.957031 17.339844 25.304688 13.796875 27.316406 C 14.796875 27.71875 15.5 28 15.5 28 C 15.5 28 17.800781 34.890625 18.28125 36.398438 C 18.757812 37.910156 19.140625 37.949219 19.140625 37.949219 C 19.246094 37.992188 19.351562 38.011719 19.449219 38.011719 C 19.527344 38.011719 19.578125 37.984375 19.644531 37.964844 L 22 28.75 C 22 28.75 32.726562 17.894531 33.371094 17.261719 C 33.890625 16.757812 34 16.578125 34 16.402344 C 34 16.167969 33.878906 16 33.601562 16 Z M 33.601562 16 "/>
</g>
</svg>
