<?xml version="1.0" encoding="UTF-8"?>
<svg xmlns="http://www.w3.org/2000/svg" xmlns:xlink="http://www.w3.org/1999/xlink" width="48pt" height="48pt" viewBox="0 0 48 48" version="1.1">
<g id="surface121258">
<path style=" stroke:none;fill-rule:nonzero;fill:rgb(100%,100%,100%);fill-opacity:1;" d="M 44.699219 11 L 36 19.601562 C 36 19.601562 33.398438 19.601562 30.800781 17 C 28.199219 14.398438 28.199219 11.800781 28.199219 11.800781 L 36.898438 3.101562 C 32 1.898438 26.101562 3.5 22.5 7.101562 C 17.101562 12.5 21.898438 19.398438 20.5 20.800781 C 12.898438 28.699219 5.101562 34.699219 4.898438 35 C 2.601562 37.300781 2.5 41 4.699219 43.199219 C 6.898438 45.398438 10.601562 45.300781 12.898438 43 C 13.199219 42.699219 19.601562 34.601562 27.101562 27.101562 C 28.5 25.699219 35.101562 30.800781 40.699219 25.300781 C 44.199219 21.699219 45.898438 15.898438 44.699219 11 Z M 9.398438 41.101562 C 8 41.101562 6.898438 40 6.898438 38.601562 C 6.898438 37.101562 8 36 9.398438 36 C 10.800781 36 11.898438 37.101562 11.898438 38.5 C 11.898438 39.898438 10.800781 41.101562 9.398438 41.101562 Z M 9.398438 41.101562 "/>
</g>
</svg>
